<svg width="100%" height="100%" viewBox="0 0 1000 1000" xmlns="http://www.w3.org/2000/svg"> <defs> <clipPath id="shape"> <path fill="currentColor" d="M952.5,647Q905,794,780,885Q655,976,500,976Q345,976,220,885Q95,794,47.5,647Q0,500,47.5,353Q95,206,220,115Q345,24,500,24Q655,24,780,115Q905,206,952.5,353Q1000,500,952.5,647Z"/> </clipPath> </defs> <g clip-path="url(#shape)"> <path fill="#df3b3b" d="M952.5,647Q905,794,780,885Q655,976,500,976Q345,976,220,885Q95,794,47.5,647Q0,500,47.5,353Q95,206,220,115Q345,24,500,24Q655,24,780,115Q905,206,952.5,353Q1000,500,952.5,647Z"/> </g> </svg>